<svg width="512" height="512" viewBox="0 0 512 512" fill="none" xmlns="http://www.w3.org/2000/svg">
<g clip-path="url(#clip0_34_9718)">
<g filter="url(#filter0_d_34_9718)">
<path d="M244.671 83.1282C249.642 74.2966 262.358 74.2966 267.329 83.1282L307.23 154.021C309.558 158.157 313.955 160.696 318.701 160.644L400.047 159.753C410.181 159.642 416.539 170.655 411.376 179.375L369.931 249.377C367.513 253.461 367.513 258.539 369.931 262.623L411.376 332.625C416.539 341.345 410.181 352.358 400.047 352.247L318.701 351.356C313.955 351.304 309.558 353.842 307.23 357.979L267.329 428.872C262.358 437.703 249.642 437.703 244.671 428.872L204.77 357.979C202.442 353.843 198.045 351.304 193.299 351.356L111.953 352.247C101.819 352.358 95.4612 341.345 100.624 332.625L142.069 262.623C144.487 258.539 144.487 253.461 142.069 249.377L100.624 179.375C95.4612 170.655 101.819 159.642 111.953 159.753L193.299 160.644C198.045 160.696 202.442 158.158 204.77 154.021L244.671 83.1282Z" fill="white"/>
<path d="M245.106 83.373C249.886 74.8813 262.114 74.8813 266.894 83.373L306.794 154.267C309.211 158.562 313.778 161.199 318.707 161.145L400.053 160.253C409.796 160.146 415.91 170.735 410.945 179.12L369.501 249.122C366.99 253.363 366.99 258.637 369.501 262.878L410.945 332.88C415.91 341.265 409.796 351.854 400.053 351.747L318.707 350.855C313.778 350.801 309.211 353.438 306.794 357.733L266.894 428.627C262.114 437.119 249.886 437.119 245.106 428.627L205.206 357.733C202.789 353.438 198.222 350.801 193.293 350.855L111.947 351.747C102.204 351.854 96.0905 341.265 101.055 332.88L142.499 262.878C145.01 258.637 145.01 253.363 142.499 249.122L101.055 179.12C96.0905 170.735 102.204 160.146 111.947 160.253L193.293 161.145C198.222 161.199 202.789 158.562 205.206 154.267L245.106 83.373Z" stroke="black"/>
</g>
<path d="M557 336C317 336 371.769 382.721 289.5 382.721C243.769 382.721 233 428.927 200.78 428.928C99.0007 428.928 -44.6493 463.415 -101.232 534.69C-102.638 536.461 -103.965 538.261 -105.229 540.077C-147.074 533.117 -164.038 522.742 -139.952 507.572C-122.381 496.505 -116.501 473.923 -101.232 454.69C-44.6493 383.415 99.0007 348.928 200.78 348.928C233 348.927 243.769 302.721 289.5 302.721C371.769 302.721 317 256 557 256V336Z" fill="#1168FF"/>
<mask id="mask0_34_9718" style="mask-type:alpha" maskUnits="userSpaceOnUse" x="98" y="76" width="316" height="360">
<path d="M245.106 83.373C249.886 74.8813 262.114 74.8813 266.894 83.373L306.794 154.267C309.211 158.562 313.778 161.199 318.707 161.145L400.053 160.253C409.796 160.146 415.91 170.735 410.945 179.12L369.501 249.122C366.99 253.363 366.99 258.637 369.501 262.878L410.945 332.88C415.91 341.265 409.796 351.854 400.053 351.747L318.707 350.855C313.778 350.801 309.211 353.438 306.794 357.733L266.894 428.627C262.114 437.119 249.886 437.119 245.106 428.627L205.206 357.733C202.789 353.438 198.222 350.801 193.293 350.855L111.947 351.747C102.204 351.854 96.0905 341.265 101.055 332.88L142.499 262.878C145.01 258.637 145.01 253.363 142.499 249.122L101.055 179.12C96.0905 170.735 102.204 160.146 111.947 160.253L193.293 161.145C198.222 161.199 202.789 158.562 205.206 154.267L245.106 83.373Z" fill="white" stroke="black"/>
</mask>
<g mask="url(#mask0_34_9718)">
<path d="M557 546.592V256C317 256 371.769 302.721 289.5 302.721C243.769 302.721 233 348.928 200.78 348.928C99 348.928 -44.6501 383.415 -101.233 454.691C-116.501 473.924 -122.381 496.505 -139.953 507.572C-249.169 576.361 485.665 546.592 557 546.592Z" fill="black"/>
</g>
<g filter="url(#filter1_d_34_9718)">
<path d="M251.643 87.0518C253.554 83.6552 258.446 83.6552 260.357 87.0518L300.259 157.945C304.019 164.627 311.122 168.728 318.789 168.644L400.135 167.753C404.032 167.71 406.478 171.946 404.492 175.3L363.047 245.302C359.141 251.899 359.141 260.101 363.047 266.698L404.492 336.7C406.478 340.054 404.032 344.29 400.135 344.247L318.789 343.356C311.122 343.272 304.019 347.373 300.259 354.055L260.357 424.948C258.446 428.345 253.554 428.345 251.643 424.948L211.741 354.055C207.981 347.373 200.878 343.272 193.211 343.356L111.865 344.247C107.968 344.29 105.522 340.054 107.508 336.7L148.953 266.698C152.859 260.101 152.859 251.899 148.953 245.302L107.508 175.3C105.522 171.946 107.968 167.71 111.865 167.753L193.211 168.644C200.878 168.728 207.981 164.627 211.741 157.945L251.643 87.0518Z" stroke="white" stroke-width="16" shape-rendering="crispEdges"/>
</g>
</g>
<defs>
<filter id="filter0_d_34_9718" x="32.19" y="13.9044" width="447.62" height="492.191" filterUnits="userSpaceOnUse" color-interpolation-filters="sRGB">
<feFlood flood-opacity="0" result="BackgroundImageFix"/>
<feColorMatrix in="SourceAlpha" type="matrix" values="0 0 0 0 0 0 0 0 0 0 0 0 0 0 0 0 0 0 127 0" result="hardAlpha"/>
<feOffset dy="4"/>
<feGaussianBlur stdDeviation="33.3"/>
<feComposite in2="hardAlpha" operator="out"/>
<feColorMatrix type="matrix" values="0 0 0 0 0 0 0 0 0 0 0 0 0 0 0 0 0 0 0.85 0"/>
<feBlend mode="normal" in2="BackgroundImageFix" result="effect1_dropShadow_34_9718"/>
<feBlend mode="normal" in="SourceGraphic" in2="effect1_dropShadow_34_9718" result="shape"/>
</filter>
<filter id="filter1_d_34_9718" x="32.19" y="13.9044" width="447.62" height="492.191" filterUnits="userSpaceOnUse" color-interpolation-filters="sRGB">
<feFlood flood-opacity="0" result="BackgroundImageFix"/>
<feColorMatrix in="SourceAlpha" type="matrix" values="0 0 0 0 0 0 0 0 0 0 0 0 0 0 0 0 0 0 127 0" result="hardAlpha"/>
<feOffset dy="4"/>
<feGaussianBlur stdDeviation="33.3"/>
<feComposite in2="hardAlpha" operator="out"/>
<feColorMatrix type="matrix" values="0 0 0 0 0 0 0 0 0 0 0 0 0 0 0 0 0 0 0.85 0"/>
<feBlend mode="normal" in2="BackgroundImageFix" result="effect1_dropShadow_34_9718"/>
<feBlend mode="normal" in="SourceGraphic" in2="effect1_dropShadow_34_9718" result="shape"/>
</filter>
<clipPath id="clip0_34_9718">
<rect width="512" height="512" fill="white"/>
</clipPath>
</defs>
</svg>
